<?xml version="1.0" encoding="UTF-8"?>
<svg width="27px" height="24px" viewBox="0 0 27 24" version="1.1" xmlns="http://www.w3.org/2000/svg" xmlns:xlink="http://www.w3.org/1999/xlink">
    <!-- Generator: Sketch 55.2 (78181) - https://sketchapp.com -->
    <title>Invest</title>
    <desc>Created with Sketch.</desc>
    <g id="Final" stroke="none" stroke-width="1" fill="none" fill-rule="evenodd">
        <g id="Homepage_Desktop_05.14.19" transform="translate(-768.000000, -793.000000)">
            <g id="Invest-Spare-Change" transform="translate(762.000000, 784.457620)">
                <g id="Invest" transform="translate(7.000000, 9.000000)">
                    <circle id="Oval" fill="#BCEAA3" cx="16.6666667" cy="8.88888889" r="8.88888889"></circle>
                    <g id="Group-Copy" transform="translate(0.000000, 6.666667)" stroke="#363F41" stroke-linecap="round" stroke-width="2">
                        <path d="M0,0.0891746864 L0,14.4659376 C1.04869017e-15,15.0182223 0.44771525,15.4659376 1,15.4659376 L19.9363262,15.4659376" id="Path-2-Copy"></path>
                    </g>
                    <path d="M7.38095238,11.111131 C7.95076998,11.111131 8.41269841,11.5730594 8.41269841,12.142877 L8.41269841,18.9682297 C8.41269841,19.5380473 7.95076998,19.9999757 7.38095238,19.9999757 C6.81113478,19.9999757 6.34920635,19.5380473 6.34920635,18.9682297 L6.34920635,12.142877 C6.34920635,11.5730594 6.81113478,11.111131 7.38095238,11.111131 Z M11.5079365,13.3333664 C12.0777541,13.3333664 12.5396825,13.7952948 12.5396825,14.3651124 L12.5396825,18.968254 C12.5396825,19.5380716 12.0777541,20 11.5079365,20 C10.9381189,20 10.4761905,19.5380716 10.4761905,18.968254 L10.4761905,14.3651124 C10.4761905,13.7952948 10.9381189,13.3333664 11.5079365,13.3333664 Z M3.25396825,15.5555776 C3.82378585,15.5555776 4.28571429,16.017506 4.28571429,16.5873236 L4.28571429,18.968254 C4.28571429,19.5380716 3.82378585,20 3.25396825,20 C2.68415065,20 2.22222222,19.5380716 2.22222222,18.968254 L2.22222222,16.5873236 C2.22222222,16.017506 2.68415065,15.5555776 3.25396825,15.5555776 Z M15.6349206,7.77777778 C16.2047382,7.77777778 16.6666667,8.23970621 16.6666667,8.80952381 L16.6666667,18.9681933 C16.6666667,19.5380109 16.2047382,19.9999394 15.6349206,19.9999394 C15.065103,19.9999394 14.6031746,19.5380109 14.6031746,18.9681933 L14.6031746,8.80952381 C14.6031746,8.23970621 15.065103,7.77777778 15.6349206,7.77777778 Z" id="Combined-Shape" fill="#363F41"></path>
                </g>
            </g>
        </g>
    </g>
</svg>