<?xml version="1.0" encoding="UTF-8"?>
<svg width="28px" height="19px" viewBox="0 0 28 19" version="1.1" xmlns="http://www.w3.org/2000/svg" xmlns:xlink="http://www.w3.org/1999/xlink">
    <!-- Generator: Sketch 55.2 (78181) - https://sketchapp.com -->
    <title>Later</title>
    <desc>Created with Sketch.</desc>
    <g id="Final" stroke="none" stroke-width="1" fill="none" fill-rule="evenodd">
        <g id="Homepage_Desktop_05.14.19" transform="translate(-768.000000, -923.000000)">
            <g id="Later-Icon" transform="translate(762.000000, 912.457620)">
                <g id="Later" transform="translate(7.000000, 11.000000)">
                    <path d="M18.9358214,13.4494542 C18.4364488,10.4758011 15.7857282,8.2 12.5816327,8.2 C9.37627197,8.2 6.7247233,10.4775987 6.22685338,13.452977 C10.2235718,13.4060515 15.6275251,13.4048602 18.9358214,13.4494542 Z" id="Oval" stroke="#363F41" stroke-width="2" fill="#BCEAA3"></path>
                    <path d="M0,17.35 L26,17.35" id="Path-2-Copy" stroke="#363F41" stroke-width="2" stroke-linecap="round"></path>
                    <path d="M12.8571429,-1.70530257e-13 C13.5672232,-1.70660696e-13 14.1428571,0.575633893 14.1428571,1.28571429 L14.1428571,3.51428571 C14.1428571,4.22436611 13.5672232,4.8 12.8571429,4.8 C12.1470625,4.8 11.5714286,4.22436611 11.5714286,3.51428571 L11.5714286,1.28571429 C11.5714286,0.575633893 12.1470625,-1.70399817e-13 12.8571429,-1.70530257e-13 Z" id="Combined-Shape" fill="#363F41"></path>
                    <path d="M22.0131262,3.74558441 C22.7232065,3.74558441 23.2988404,4.32121831 23.2988404,5.0312987 L23.2988404,7.25987013 C23.2988404,7.96995052 22.7232065,8.54558441 22.0131262,8.54558441 C21.3030458,8.54558441 20.7274119,7.96995052 20.7274119,7.25987013 L20.7274119,5.0312987 C20.7274119,4.32121831 21.3030458,3.74558441 22.0131262,3.74558441 Z" id="Combined-Shape" fill="#363F41" transform="translate(22.013126, 6.145584) rotate(45.000000) translate(-22.013126, -6.145584) "></path>
                    <path d="M4.01312616,3.74558441 C4.72320655,3.74558441 5.29884044,4.32121831 5.29884044,5.0312987 L5.29884044,7.25987013 C5.29884044,7.96995052 4.72320655,8.54558441 4.01312616,8.54558441 C3.30304576,8.54558441 2.72741187,7.96995052 2.72741187,7.25987013 L2.72741187,5.0312987 C2.72741187,4.32121831 3.30304576,3.74558441 4.01312616,3.74558441 Z" id="Combined-Shape" fill="#363F41" transform="translate(4.013126, 6.145584) rotate(-45.000000) translate(-4.013126, -6.145584) "></path>
                </g>
            </g>
        </g>
    </g>
</svg>